<svg id="Layer_1" data-name="Layer 1" xmlns="http://www.w3.org/2000/svg" viewBox="0 0 273.21 243.78"><defs><style>.cls-1{opacity:0.2;}.cls-2{fill:#faed24;}</style></defs><title>Untitled-2</title><g class="cls-1"><path class="cls-2" d="M123.44,455.86a2,2,0,0,1-1.52-.44,7.09,7.09,0,0,1-4.19-5.81L108.68,334l-12.48,8.1c-1.89,1.35-4.17.91-6.06-.43L2.39,269.4a8.19,8.19,0,0,1-2.29-7.16c.37-2.69,2.26-4.93,4.91-4.94l261.7-45.13a5.38,5.38,0,0,1,5.69,3.12,7.81,7.81,0,0,1-.36,7.62L128,453.15A4.78,4.78,0,0,1,123.44,455.86Zm-4.18-131.25,8.28,106.6L246.7,240.45ZM20.95,268l71,58.92,146-96.31Z" transform="translate(0 -212.08)"/></g></svg>